<svg xmlns="http://www.w3.org/2000/svg" xmlns:xlink="http://www.w3.org/1999/xlink" width="500" zoomAndPan="magnify" viewBox="0 0 375 374.999991" height="500" preserveAspectRatio="xMidYMid meet" version="1.0"><rect x="-37.5" width="450" fill="#ffffff" y="-37.499999" height="449.999989" fill-opacity="1"/><rect x="-37.5" width="450" fill="#fafaf8" y="-37.499999" height="449.999989" fill-opacity="1"/><path fill="#000000" d="M 171.566406 270.0625 L 171.5 270.082031 Z M 171.566406 270.0625 " fill-opacity="1" fill-rule="nonzero"/><path fill="#000000" d="M 304.53125 84.34375 C 293.882812 77.957031 280.777344 78.160156 270.308594 84.855469 L 170.652344 148.59375 C 168.039062 150.265625 164.757812 150.3125 162.101562 148.703125 L 116.894531 121.492188 C 107.875 116.042969 96.691406 116.132812 87.757812 121.714844 L -7.253906 180.851562 L -7.253906 508.824219 L 382.242188 508.824219 L 382.242188 130.84375 Z M 368.269531 494.847656 L 6.722656 494.847656 L 6.722656 405.59375 L 119.460938 405.59375 C 126.359375 405.59375 124.707031 401.6875 123.8125 400.167969 C 123.792969 400.167969 123.792969 400.148438 123.792969 400.148438 C 123.65625 399.921875 123.523438 399.746094 123.457031 399.65625 C 123.433594 399.609375 123.410156 399.589844 123.410156 399.589844 C 100.773438 365.253906 182.730469 341.523438 214.652344 317.433594 C 214.652344 317.433594 214.652344 317.433594 214.675781 317.410156 C 227.066406 304.796875 209.003906 296.671875 206.839844 295.734375 C 206.792969 295.710938 206.726562 295.691406 206.707031 295.691406 C 206.683594 295.691406 206.660156 295.667969 206.636719 295.667969 C 206.636719 295.667969 206.617188 295.667969 206.617188 295.667969 C 175.519531 285.019531 114.75 271.332031 95.328125 260.550781 C 65.035156 243.761719 100.507812 226.484375 101.3125 226.105469 L 101.332031 226.082031 C 101.332031 226.082031 101.355469 226.082031 101.398438 226.039062 C 102.71875 225.1875 120.597656 213.582031 126.761719 201.457031 C 127.476562 200.097656 128.011719 198.734375 128.367188 197.371094 C 128.367188 197.351562 128.390625 197.351562 128.390625 197.328125 C 129.171875 195.007812 129.730469 192.527344 130.042969 189.894531 C 130.042969 189.894531 130.042969 189.871094 130.042969 189.871094 L 130.265625 187.414062 L 131.113281 177.859375 C 131.671875 171.519531 125.757812 166.585938 119.617188 168.285156 L 109.882812 170.984375 C 104.078125 172.59375 98.164062 168.773438 97.226562 162.835938 L 96.265625 156.71875 C 95.28125 150.535156 88.742188 146.941406 82.980469 149.417969 L 39.582031 168.148438 L 95.148438 133.546875 C 99.613281 130.753906 105.195312 130.734375 109.703125 133.433594 L 154.890625 160.671875 C 162.121094 165.023438 171.054688 164.914062 178.175781 160.359375 L 277.832031 96.621094 C 283.792969 92.804688 291.292969 92.691406 297.367188 96.332031 L 353.378906 129.839844 L 340.160156 126.757812 C 335.742188 125.734375 331.5 129.082031 331.5 133.636719 L 331.5 138.703125 C 331.5 143.144531 326.140625 145.378906 322.992188 142.253906 L 306.339844 125.6875 C 301.851562 121.246094 294.53125 121.558594 290.46875 126.402344 L 275.578125 144.039062 C 272.136719 148.125 265.441406 145.691406 265.441406 140.332031 L 265.441406 136.425781 C 265.441406 128.679688 256.535156 124.328125 250.4375 129.058594 L 178.644531 184.582031 L 178.554688 184.648438 L 116.960938 232.578125 C 116.960938 232.578125 90.660156 249.546875 133.59375 259.859375 C 171.164062 268.902344 296.339844 282.832031 257.40625 320.449219 C 228.960938 347.90625 163.753906 376.371094 179.515625 396.53125 C 179.515625 396.53125 179.535156 396.574219 179.582031 396.621094 C 179.601562 396.664062 179.648438 396.707031 179.671875 396.753906 C 179.738281 396.820312 179.804688 396.910156 179.914062 397.019531 C 181.703125 398.898438 190.699219 405.570312 227.132812 405.570312 L 368.269531 405.570312 Z M 368.269531 494.847656 " fill-opacity="1" fill-rule="nonzero"/><path fill="#fafaf8" d="M 169.578125 324.691406 C 169.601562 324.710938 169.625 324.757812 169.667969 324.824219 C 169.625 324.777344 169.601562 324.734375 169.578125 324.691406 Z M 169.578125 324.691406 " fill-opacity="1" fill-rule="nonzero"/><path fill="#fafaf8" d="M 170.515625 267.472656 C 170.695312 267.09375 170.851562 266.710938 170.984375 266.289062 C 170.894531 266.667969 170.71875 267.070312 170.515625 267.472656 Z M 170.515625 267.472656 " fill-opacity="1" fill-rule="nonzero"/><path fill="#fafaf8" d="M 171.566406 270.0625 L 171.5 270.082031 Z M 171.566406 270.0625 " fill-opacity="1" fill-rule="nonzero"/></svg>