<svg width="21" height="22" viewBox="0 0 21 22" fill="none" xmlns="http://www.w3.org/2000/svg">
    <mask id="mask0_430_8252" style="mask-type:luminance" maskUnits="userSpaceOnUse" x="0" y="0" width="21" height="22">
        <path fill-rule="evenodd" clip-rule="evenodd" d="M0 0.000244141H20.4998V21.5052H0V0.000244141Z" fill="white"/>
    </mask>
    <g mask="url(#mask0_430_8252)">
        <path fill-rule="evenodd" clip-rule="evenodd" d="M11.7168 14.2914C12.9208 14.2914 13.9008 15.2644 13.9008 16.4604V19.5364C13.9008 19.7934 14.1068 19.9994 14.3708 20.0054H16.2768C17.7788 20.0054 18.9998 18.7994 18.9998 17.3174V8.59337C18.9928 8.08337 18.7498 7.60337 18.3328 7.28437L11.7398 2.02637C10.8548 1.32537 9.61676 1.32537 8.72876 2.02837L2.18076 7.28237C1.74776 7.61137 1.50476 8.09137 1.49976 8.61037V17.3174C1.49976 18.7994 2.72076 20.0054 4.22276 20.0054H6.14676C6.41776 20.0054 6.63776 19.7904 6.63776 19.5264C6.63776 19.4684 6.64476 19.4104 6.65676 19.3554V16.4604C6.65676 15.2714 7.63076 14.2994 8.82576 14.2914H11.7168ZM16.2768 21.5054H14.3528C13.2508 21.4794 12.4008 20.6144 12.4008 19.5364V16.4604C12.4008 16.0914 12.0938 15.7914 11.7168 15.7914H8.83076C8.46176 15.7934 8.15676 16.0944 8.15676 16.4604V19.5264C8.15676 19.6014 8.14676 19.6734 8.12576 19.7414C8.01776 20.7314 7.17176 21.5054 6.14676 21.5054H4.22276C1.89376 21.5054 -0.000244141 19.6264 -0.000244141 17.3174V8.60337C0.00975586 7.60937 0.467756 6.69937 1.25876 6.10037L7.79376 0.855372C9.23276 -0.284628 11.2378 -0.284628 12.6738 0.853372L19.2558 6.10337C20.0288 6.69237 20.4868 7.60037 20.4998 8.58237V17.3174C20.4998 19.6264 18.6058 21.5054 16.2768 21.5054Z" fill="#212121"/>
    </g>
</svg>
